<?xml version="1.0" encoding="utf-8"?>
<!-- Generator: Adobe Illustrator 21.1.0, SVG Export Plug-In . SVG Version: 6.00 Build 0)  -->
<svg version="1.1" id="Layer_1" xmlns="http://www.w3.org/2000/svg" xmlns:xlink="http://www.w3.org/1999/xlink" x="0px" y="0px"
	 viewBox="0 0 201.6 59.2" style="enable-background:new 0 0 201.6 59.2;" xml:space="preserve">
<style type="text/css">
	.st0{fill:#FFFFFF;}
</style>
<path class="st0" d="M39.7,10.7c0,1.1-0.1,2-0.4,2.9c-0.3,0.9-0.7,1.6-1.2,2.3c-0.5,0.6-1.1,1.1-1.8,1.5c-0.7,0.3-1.5,0.5-2.4,0.5
	c-1,0-1.8-0.2-2.6-0.6c-0.8-0.4-1.5-1-2-1.8c0.9-0.7,1.7-1.6,2.3-2.8c0.6-1.2,0.9-2.4,0.9-3.7c0-1.6-0.5-2.9-1.5-3.9s-2.3-1.4-4-1.4
	c-1,0-2,0.2-2.8,0.6c-0.9,0.4-1.6,0.9-2.2,1.6s-1.1,1.5-1.4,2.4c-0.3,0.9-0.5,2-0.5,3.1c0,1.7,0.4,3.3,1.2,4.8s1.9,3,3.1,4.4
	s2.6,2.9,4,4.4s2.8,3.1,4,4.7c1.2,1.7,2.3,3.5,3.1,5.5s1.2,4.1,1.2,6.5c0,2.5-0.5,4.8-1.6,7c-1,2.1-2.5,4-4.4,5.5
	c-1.9,1.6-4,2.8-6.5,3.7s-5.2,1.3-8.1,1.3c-2.4,0-4.7-0.3-6.6-1c-2-0.6-3.7-1.5-5.1-2.7s-2.5-2.6-3.3-4.2C0.4,49.6,0,47.8,0,45.7
	C0,44,0.3,42.4,0.8,41c0.5-1.5,1.3-2.7,2.2-3.8s2.1-1.9,3.4-2.6c1.3-0.6,2.7-0.9,4.1-0.9c1.8,0,3.3,0.4,4.5,1.3
	c1.2,0.9,2,2.1,2.3,3.7c-1.3,0-2.6,0.2-3.6,0.6c-1.1,0.4-2,0.9-2.7,1.6c-0.7,0.7-1.3,1.5-1.7,2.4c-0.4,1-0.6,2-0.6,3.2
	c0,2.2,0.7,4,2,5.3s3.1,2,5.3,2c1.3,0,2.6-0.2,3.7-0.7s2.1-1.2,3-2c0.8-0.8,1.5-1.9,1.9-3c0.5-1.2,0.7-2.4,0.7-3.8
	c0-1.4-0.2-2.7-0.7-4s-1.1-2.5-1.8-3.7c-0.8-1.2-1.6-2.4-2.6-3.6c-1-1.2-2-2.3-3-3.5s-2-2.4-3-3.6s-1.8-2.4-2.6-3.7
	c-0.8-1.3-1.4-2.6-1.8-3.9C9.2,16.9,9,15.5,9,14c0-2,0.4-3.9,1.3-5.6c0.9-1.7,2.1-3.2,3.6-4.4s3.3-2.2,5.4-2.9S23.6,0,26.1,0
	c2.1,0,3.9,0.3,5.6,0.8S34.8,2,36,2.9s2.1,2.1,2.7,3.4C39.4,7.6,39.7,9.1,39.7,10.7z"/>
<path class="st0" d="M64.6,44.1c-0.7,2.1-1.5,3.9-2.4,5.4s-1.8,2.8-2.8,3.8s-1.9,1.9-2.9,2.5s-2,1.1-2.9,1.5
	c-0.9,0.3-1.8,0.6-2.7,0.7c-0.9,0.1-1.6,0.2-2.3,0.2c-1.1,0-2.2-0.2-3.2-0.5s-1.9-0.9-2.6-1.6c-0.7-0.7-1.3-1.7-1.7-2.8
	s-0.6-2.5-0.6-4.1c0-0.7,0.1-1.5,0.1-2.3c0.1-0.8,0.2-1.7,0.4-2.7l4.6-21.5h-2.5l0.6-3.1h2.5L48.5,9l11.3-1.5l-2.6,12.1h4.6
	l-0.6,3.1h-4.6l-4.9,22.9c-0.1,0.4-0.2,0.8-0.2,1.3c0,0.4-0.1,0.8-0.1,1.2c0,1.1,0.2,1.8,0.7,2.2s1.3,0.6,2.4,0.6
	c0.7,0,1.5-0.2,2.2-0.5s1.4-0.8,2-1.4c0.6-0.6,1.1-1.3,1.6-2.1s0.9-1.7,1.2-2.7L64.6,44.1L64.6,44.1z"/>
<path class="st0" d="M93.4,44.1c-1.1,1.8-2.3,3.5-3.7,5.2c-1.4,1.7-2.9,3.2-4.7,4.5c-1.7,1.3-3.6,2.4-5.8,3.2
	c-2.1,0.8-4.4,1.2-6.9,1.2c-1.8,0-3.5-0.2-4.9-0.7c-1.5-0.5-2.7-1.2-3.8-2.1c-1-1-1.8-2.2-2.4-3.8c-0.6-1.5-0.8-3.4-0.8-5.5
	c0-1.5,0.1-3.2,0.4-5.1c0.3-1.9,0.8-3.9,1.4-5.9c0.6-2,1.5-4,2.6-5.9s2.4-3.7,3.9-5.2c1.5-1.5,3.3-2.8,5.3-3.7c2-0.9,4.4-1.4,7-1.4
	c1.7,0,3.1,0.2,4.2,0.6s1.9,1,2.6,1.6c0.6,0.7,1.1,1.5,1.3,2.3c0.2,0.9,0.4,1.8,0.4,2.7c0,2.2-0.5,4.3-1.5,6.2c-1,1.9-2.3,3.6-3.9,5
	s-3.5,2.6-5.6,3.4c-2.1,0.9-4.3,1.4-6.6,1.5c-0.1,0.6-0.1,1.1-0.1,1.6s-0.1,1-0.1,1.4c0,1.3,0.1,2.4,0.4,3.2c0.2,0.8,0.6,1.5,1,2
	c0.5,0.5,1,0.8,1.7,1s1.5,0.3,2.4,0.3c1.5,0,2.9-0.2,4.1-0.6c1.2-0.4,2.4-0.9,3.5-1.6c1.1-0.7,2.1-1.5,3-2.5c1-0.9,1.9-2,2.9-3
	L93.4,44.1L93.4,44.1z M72.5,38.7c1.4-0.1,2.8-0.5,4.2-1.2c1.3-0.7,2.5-1.7,3.5-2.8c1-1.2,1.8-2.5,2.4-4s0.9-3,0.9-4.6
	c0-0.9-0.1-1.7-0.4-2.3c-0.3-0.6-0.8-0.9-1.5-0.9c-1,0-1.9,0.5-2.9,1.4c-0.9,0.9-1.8,2.1-2.6,3.6c-0.8,1.5-1.6,3.2-2.2,5.1
	C73.4,34.9,72.9,36.8,72.5,38.7z"/>
<path class="st0" d="M114.4,44.1c-0.7,2.1-1.5,3.9-2.4,5.4s-1.8,2.8-2.8,3.8s-1.9,1.9-2.9,2.5s-2,1.1-2.9,1.5
	c-0.9,0.3-1.8,0.6-2.7,0.7c-0.9,0.1-1.6,0.2-2.3,0.2c-1.1,0-2.2-0.2-3.2-0.5s-1.9-0.9-2.6-1.6c-0.7-0.7-1.3-1.7-1.7-2.8
	c-0.4-1.1-0.6-2.5-0.6-4.1c0-0.7,0.1-1.5,0.1-2.3c0.1-0.8,0.2-1.7,0.4-2.7L99,5.8l11.3-1.5l-8.8,41.3c-0.1,0.4-0.2,0.8-0.2,1.3
	c0,0.4-0.1,0.8-0.1,1.2c0,1.1,0.2,1.8,0.7,2.2s1.3,0.6,2.4,0.6c0.7,0,1.5-0.2,2.2-0.5s1.4-0.8,2-1.4s1.1-1.3,1.6-2.1
	s0.9-1.7,1.2-2.7L114.4,44.1L114.4,44.1z"/>
<path class="st0" d="M134.9,44.1c-0.7,2.1-1.5,3.9-2.4,5.4s-1.8,2.8-2.8,3.8s-1.9,1.9-2.9,2.5s-2,1.1-2.9,1.5
	c-0.9,0.3-1.8,0.6-2.7,0.7c-0.9,0.1-1.6,0.2-2.3,0.2c-1.1,0-2.2-0.2-3.2-0.5s-1.9-0.9-2.6-1.6c-0.7-0.7-1.3-1.7-1.7-2.8
	c-0.4-1.1-0.6-2.5-0.6-4.1c0-0.7,0.1-1.5,0.1-2.3c0.1-0.8,0.2-1.7,0.4-2.7l8.2-38.3l11.3-1.5L122,45.7c-0.1,0.4-0.2,0.8-0.2,1.3
	c0,0.4-0.1,0.8-0.1,1.2c0,1.1,0.2,1.8,0.7,2.2s1.3,0.6,2.4,0.6c0.7,0,1.5-0.2,2.2-0.5s1.4-0.8,2-1.4c0.6-0.6,1.1-1.3,1.6-2.1
	s0.9-1.7,1.2-2.7h3.1V44.1z"/>
<path class="st0" d="M175.1,44.1c-0.7,2.1-1.5,3.9-2.4,5.4c-0.8,1.5-1.7,2.8-2.6,3.8c-0.9,1-1.8,1.9-2.8,2.5
	c-0.9,0.6-1.9,1.1-2.8,1.5c-0.9,0.3-1.8,0.6-2.6,0.7c-0.8,0.1-1.6,0.2-2.2,0.2c-2.2,0-3.9-0.6-5.2-1.8s-2.1-2.9-2.3-5.2
	c-0.6,0.9-1.3,1.7-2.1,2.6c-0.7,0.8-1.6,1.6-2.5,2.2c-0.9,0.7-1.9,1.2-3.1,1.6c-1.1,0.4-2.4,0.6-3.8,0.6c-1.3,0-2.6-0.2-3.8-0.6
	c-1.2-0.4-2.3-1.1-3.2-2.1s-1.7-2.2-2.3-3.8s-0.9-3.5-0.9-5.7c0-1.7,0.2-3.6,0.5-5.6s0.9-4,1.6-6c0.7-2,1.6-3.9,2.7-5.7
	c1.1-1.8,2.4-3.4,3.8-4.9c1.5-1.4,3.1-2.5,4.9-3.4c1.8-0.8,3.9-1.3,6.1-1.3c2.2,0,3.7,0.4,4.7,1.1s1.5,1.7,1.5,2.8v0.6l0.8-4.1h11
	l-5.5,26c-0.1,0.4-0.2,0.8-0.3,1.3c-0.1,0.4-0.1,0.8-0.1,1.2c0,2.2,1,3.3,3.1,3.3c0.7,0,1.4-0.2,2.1-0.6c0.6-0.4,1.2-0.9,1.7-1.6
	c0.5-0.6,1-1.4,1.4-2.3c0.4-0.9,0.7-1.8,1-2.8L175.1,44.1L175.1,44.1z M155.8,26.8c0-0.2-0.1-0.5-0.1-0.8c-0.1-0.3-0.3-0.7-0.5-1
	s-0.6-0.6-1-0.8c-0.4-0.2-0.9-0.3-1.5-0.3c-1.1,0-2.1,0.3-3,1c-1,0.7-1.8,1.6-2.6,2.8c-0.8,1.2-1.5,2.5-2.1,3.9
	c-0.6,1.5-1.2,3-1.6,4.5c-0.4,1.6-0.8,3.1-1,4.6s-0.3,2.9-0.3,4.1c0,1.5,0.1,2.6,0.4,3.4c0.3,0.8,0.6,1.4,1,1.8
	c0.4,0.4,0.8,0.6,1.3,0.7c0.4,0.1,0.8,0.1,1.2,0.1c0.6,0,1.2-0.1,1.8-0.4c0.6-0.3,1.2-0.7,1.8-1.3s1.1-1.3,1.6-2.1s0.9-1.8,1.1-3
	L155.8,26.8z"/>
<path class="st0" d="M169,57.8l8.1-38.2h11l-1,4.7c0.7-0.6,1.4-1.2,2.1-1.8c0.7-0.6,1.4-1.1,2.2-1.5s1.5-0.8,2.4-1.1
	c0.8-0.3,1.7-0.4,2.6-0.4c0.9,0,1.6,0.2,2.3,0.5s1.2,0.7,1.7,1.3c0.4,0.5,0.8,1.1,1,1.8c0.2,0.7,0.3,1.4,0.3,2.2
	c0,0.7-0.1,1.3-0.3,2s-0.6,1.2-1,1.8c-0.5,0.5-1,1-1.7,1.3s-1.5,0.5-2.4,0.5c-0.7,0-1.3-0.1-1.7-0.4c-0.4-0.2-0.7-0.6-0.9-0.9
	c-0.2-0.4-0.3-0.8-0.4-1.2c-0.1-0.4-0.2-0.8-0.3-1.2c-0.1-0.4-0.2-0.7-0.4-0.9c-0.2-0.2-0.4-0.4-0.8-0.4c-1.2,0-2.2,0.3-3,0.8
	s-1.7,1.2-2.6,2.1l-6.2,29H169z"/>
</svg>
