<?xml version="1.0" encoding="utf-8"?>
<!-- Generator: Adobe Illustrator 21.1.0, SVG Export Plug-In . SVG Version: 6.00 Build 0)  -->
<svg version="1.1" id="Layer_1" xmlns="http://www.w3.org/2000/svg" xmlns:xlink="http://www.w3.org/1999/xlink" x="0px" y="0px"
	 viewBox="0 0 39.7 59.2" style="enable-background:new 0 0 39.7 59.2;" xml:space="preserve">
<path d="M39.7,10.7c0,1.1-0.1,2-0.4,2.9c-0.3,0.9-0.7,1.6-1.2,2.3c-0.5,0.6-1.1,1.1-1.8,1.5c-0.7,0.3-1.5,0.5-2.4,0.5
	c-1,0-1.8-0.2-2.6-0.6c-0.8-0.4-1.5-1-2-1.8c0.9-0.7,1.7-1.6,2.3-2.8c0.6-1.2,0.9-2.4,0.9-3.7c0-1.6-0.5-2.9-1.5-3.9
	c-1-1-2.3-1.4-4-1.4c-1,0-2,0.2-2.8,0.6c-0.9,0.4-1.6,0.9-2.2,1.6c-0.6,0.7-1.1,1.5-1.4,2.4c-0.3,0.9-0.5,2-0.5,3.1
	c0,1.7,0.4,3.3,1.2,4.8s1.9,3,3.1,4.4c1.2,1.4,2.6,2.9,4,4.4c1.4,1.5,2.8,3.1,4,4.7c1.2,1.7,2.3,3.5,3.1,5.5s1.2,4.1,1.2,6.5
	c0,2.5-0.5,4.8-1.6,7c-1,2.1-2.5,4-4.4,5.5c-1.9,1.6-4,2.8-6.5,3.7c-2.5,0.9-5.2,1.3-8.1,1.3c-2.4,0-4.7-0.3-6.6-1
	c-2-0.6-3.7-1.5-5.1-2.7c-1.4-1.2-2.5-2.6-3.3-4.2C0.4,49.6,0,47.8,0,45.7c0-1.7,0.3-3.3,0.8-4.7c0.5-1.5,1.3-2.7,2.2-3.8
	c0.9-1.1,2.1-1.9,3.4-2.6c1.3-0.6,2.7-0.9,4.1-0.9c1.8,0,3.3,0.4,4.5,1.3c1.2,0.9,2,2.1,2.3,3.7c-1.3,0-2.6,0.2-3.6,0.6
	c-1.1,0.4-2,0.9-2.7,1.6c-0.7,0.7-1.3,1.5-1.7,2.4c-0.4,1-0.6,2-0.6,3.2c0,2.2,0.7,4,2,5.3c1.3,1.3,3.1,2,5.3,2
	c1.3,0,2.6-0.2,3.7-0.7c1.1-0.5,2.1-1.2,3-2c0.8-0.8,1.5-1.9,1.9-3c0.5-1.2,0.7-2.4,0.7-3.8c0-1.4-0.2-2.7-0.7-4
	c-0.5-1.3-1.1-2.5-1.8-3.7c-0.8-1.2-1.6-2.4-2.6-3.6c-1-1.2-2-2.3-3-3.5c-1-1.2-2-2.4-3-3.6c-1-1.2-1.8-2.4-2.6-3.7
	c-0.8-1.3-1.4-2.6-1.8-3.9C9.2,16.9,9,15.5,9,14c0-2,0.4-3.9,1.3-5.6c0.9-1.7,2.1-3.2,3.6-4.4c1.5-1.2,3.3-2.2,5.4-2.9
	C21.4,0.4,23.6,0,26.1,0c2.1,0,3.9,0.3,5.6,0.8C33.4,1.3,34.8,2,36,2.9c1.2,0.9,2.1,2.1,2.7,3.4C39.4,7.6,39.7,9.1,39.7,10.7z"/>
</svg>
