<?xml version="1.0" encoding="UTF-8"?>
<svg width="110px" height="22px" viewBox="0 0 110 22" version="1.1" xmlns="http://www.w3.org/2000/svg" xmlns:xlink="http://www.w3.org/1999/xlink">
    <!-- Generator: Sketch 55.2 (78181) - https://sketchapp.com -->
    <title>Group 26</title>
    <desc>Created with Sketch.</desc>
    <g id="Stellar-Dashboard" stroke="none" stroke-width="1" fill="none" fill-rule="evenodd">
        <g id="Group-26">
            <path d="M40.713058,8.50569373 C40.5681717,7.03126332 39.5284,6.15342325 37.6960154,6.15342325 C35.9062444,6.15342325 34.6789728,6.98864973 34.6789728,8.20739856 C34.6789728,9.39205652 35.9659034,9.97160143 37.9772651,10.6278508 L38.8721506,10.9176233 C42.1533975,11.9914859 43.9943048,13.4318254 43.9943048,16.1335274 C43.9943048,19.2954562 41.4545345,21.2642043 37.5937428,21.2642043 C34.0227234,21.2642043 30.9630673,19.4318197 30.9034082,15.7159141 L34.1931778,15.7159141 C34.2954504,17.5056852 35.676131,18.4261388 37.5937428,18.4261388 C39.6136272,18.4261388 40.7386261,17.3948898 40.7386261,16.1590955 C40.7386261,14.9403467 39.7499907,14.2159156 37.1676068,13.4233027 L36.2471531,13.1590984 C33.4090877,12.3068351 31.3977259,10.7216007 31.3977259,8.20739856 C31.3977259,5.27558318 34.0994279,3.30683506 37.7130608,3.30683506 C41.3437392,3.30683506 43.8579413,5.37785581 43.9176004,8.50569373 L40.713058,8.50569373 Z M54.0465358,7.90910339 L54.0465358,10.3636465 L51.7624471,10.3636465 L51.7624471,16.994322 C51.7624471,18.2130708 52.3590375,18.3920479 53.0834686,18.3920479 C53.3902865,18.3920479 53.7056271,18.3494343 53.9272178,18.2897753 L54.4471036,20.8380683 C54.1999448,20.940341 53.373241,21.1704544 52.1630149,21.1704544 C50.1772214,21.1704544 48.4556321,19.7982966 48.4556321,17.4971624 L48.4556321,10.3636465 L46.8277927,10.3636465 L46.8277927,7.90910339 L48.4556321,7.90910339 L48.4556321,5.11365151 L51.7624471,5.11365151 L51.7624471,7.90910339 L54.0465358,7.90910339 Z M63.1953523,21.2471589 C59.2663788,21.2471589 56.8544493,18.7159113 56.8544493,14.6250061 C56.8544493,10.6278508 59.138538,7.73864901 63.0589888,7.73864901 C66.3828493,7.73864901 68.9140969,9.8267152 68.9140969,14.0284157 L68.9140969,15.417619 L60.050469,15.417619 C60.2635369,17.3607989 61.2862632,18.5369342 63.1697842,18.5369342 C64.7464872,18.5369342 65.4623956,17.693185 65.8118271,16.721595 L68.7777334,17.5227306 C68.3004611,19.3210243 66.5959173,21.2471589 63.1953523,21.2471589 Z M63.0334207,10.4233055 C61.5163767,10.4233055 60.4936504,11.4204637 60.1442189,13.1420529 L65.7777362,13.1420529 C65.7777362,11.5994408 64.7720554,10.4233055 63.0334207,10.4233055 Z M75.6936026,3.54547119 L75.6936026,21 L72.3867876,21 L72.3867876,3.54547119 L75.6936026,3.54547119 Z M82.8481004,3.54547119 L82.8481004,21 L79.5412854,21 L79.5412854,3.54547119 L82.8481004,3.54547119 Z M94.0679353,21 L94.0679353,19.5255696 L93.9145264,19.5255696 C93.4628223,20.3607961 92.4060051,21.2642043 90.5650978,21.2642043 C88.2383954,21.2642043 86.3037382,19.8409102 86.3037382,17.3096626 C86.3037382,14.778415 88.2554409,13.5085299 91.5707786,13.201712 C92.7298684,13.0738712 93.9230491,13.0312576 93.9230491,12.3409173 L93.9230491,12.1448948 C93.9230491,10.9772823 93.1815725,10.3210329 92.0310055,10.3210329 C90.8122566,10.3210329 89.9173711,11.0198959 89.678735,11.9062587 L86.5679425,11.4545546 C87.1730555,9.04262504 89.3293035,7.73864901 92.1162326,7.73864901 C94.715662,7.73864901 97.2554323,8.8892161 97.2554323,12.2130766 L97.2554323,21 L94.0679353,21 Z M93.9230491,16.6363678 L93.9230491,14.9062558 C93.6758902,15.1789828 92.4827096,15.3494372 91.8861192,15.4261417 C90.3179389,15.6051188 89.525326,16.1335274 89.525326,17.267049 C89.525326,18.2045481 90.2668026,18.7585249 91.3577106,18.7585249 C92.8150956,18.7585249 93.9230491,17.7784122 93.9230491,16.6363678 Z M109.421296,8.15626225 L108.390047,11.0284186 C108.21107,10.926146 107.708229,10.7556916 107.171298,10.7556916 C105.603118,10.7556916 104.520732,12.1278494 104.503687,13.5767116 L104.503687,21 L101.196872,21 L101.196872,7.90910339 L104.435505,7.90910339 L104.435505,9.76705617 L104.623005,9.76705617 C104.998005,8.43751198 106.336072,7.73012629 107.614479,7.73012629 C108.296297,7.73012629 109.012205,7.91762611 109.421296,8.15626225 Z" id="Stellar" fill="#181824" fill-rule="nonzero"></path>
            <g id="Group-7-Copy">
                <rect id="Rectangle" fill="#24D5D8" opacity="0.519856771" x="0" y="0" width="19" height="15"></rect>
                <rect id="Rectangle-Copy-94" fill="#33C92D" x="4" y="4" width="20" height="17"></rect>
            </g>
        </g>
    </g>
</svg>